<svg width="512" height="512" xmlns="http://www.w3.org/2000/svg">

 <g>
  <title>background</title>
  <rect fill="none" id="canvas_background" height="402" width="582" y="-1" x="-1"/>
 </g>
 <g>
  <title>Layer 1</title>
  <path fill="#ffffff" id="path46" d="m207.088,260.619c0,-16.844 -4.803,-25.493 -14.408,-25.966c-3.823,-0.18 -7.557,0.428 -11.187,1.838c-2.897,1.038 -4.848,2.064 -5.874,3.101l0,40.208c6.145,3.855 11.602,5.65 16.361,5.367c10.068,-0.667 15.108,-8.841 15.108,-24.548zm11.851,0.699c0,8.559 -2.007,15.662 -6.043,21.311c-4.499,6.395 -10.734,9.686 -18.706,9.867c-6.01,0.191 -12.199,-1.691 -18.57,-5.641l0,36.545l-10.306,-3.676l0,-81.114c1.691,-2.074 3.868,-3.855 6.506,-5.366c6.134,-3.574 13.587,-5.412 22.358,-5.502l0.146,0.146c8.018,-0.101 14.196,3.19 18.537,9.866c4.049,6.122 6.078,13.969 6.078,23.564z"/>
  <path fill="#ffffff" id="path48" d="m281.922,285.303c0,11.477 -1.148,19.426 -3.449,23.848c-2.312,4.418 -6.709,7.947 -13.205,10.574c-5.266,2.074 -10.958,3.203 -17.069,3.393l-1.702,-6.492c6.213,-0.846 10.585,-1.691 13.123,-2.539c4.996,-1.689 8.424,-4.283 10.305,-7.758c1.514,-2.828 2.258,-8.23 2.258,-16.223l0,-2.686c-7.049,3.203 -14.432,4.793 -22.157,4.793c-5.074,0 -9.55,-1.59 -13.407,-4.793c-4.328,-3.484 -6.492,-7.904 -6.492,-13.258l0,-42.892l10.305,-3.529l0,43.172c0,4.611 1.488,8.162 4.464,10.654c2.978,2.492 6.834,3.689 11.558,3.598c4.724,-0.104 9.787,-1.928 15.166,-5.504l0,-50.365l10.305,0l0,56.007l-0.003,0z"/>
  <path fill="#ffffff" id="path50" d="m322.152,291.932c-1.23,0.102 -2.357,0.145 -3.395,0.145c-5.828,0 -10.373,-1.385 -13.621,-4.17c-3.234,-2.785 -4.857,-6.631 -4.857,-11.535l0,-40.592l-7.059,0l0,-6.483l7.059,0l0,-17.217l10.293,-3.665l0,20.882l11.58,0l0,6.483l-11.58,0l0,40.308c0,3.869 1.037,6.607 3.111,8.211c1.781,1.318 4.611,2.072 8.469,2.266l0,5.367z"/>
  <path fill="#ffffff" id="path52" d="m384.549,291.086l-10.305,0l0,-39.78c0,-4.047 -0.949,-7.531 -2.83,-10.44c-2.176,-3.293 -5.199,-4.939 -9.076,-4.939c-4.725,0 -10.633,2.492 -17.727,7.475l0,47.684l-10.305,0l0,-95.084l10.305,-3.247l0,43.308c6.586,-4.792 13.781,-7.193 21.592,-7.193c5.459,0 9.879,1.838 13.262,5.502c3.395,3.664 5.084,8.231 5.084,13.688l0,43.026l0,0z"/>
  <path fill="#ffffff" id="path54" d="m439.324,258.996c0,-6.472 -1.229,-11.816 -3.676,-16.044c-2.908,-5.152 -7.43,-7.871 -13.543,-8.152c-11.297,0.655 -16.934,8.749 -16.934,24.263c0,7.115 1.174,13.059 3.541,17.828c3.021,6.078 7.553,9.076 13.598,8.975c11.344,-0.091 17.014,-9.044 17.014,-26.87zm11.287,0.066c0,9.215 -2.357,16.881 -7.059,23.002c-5.176,6.857 -12.322,10.295 -21.447,10.295c-9.041,0 -16.088,-3.438 -21.172,-10.295c-4.613,-6.121 -6.914,-13.787 -6.914,-23.002c0,-8.658 2.492,-15.942 7.477,-21.873c5.266,-6.292 12.188,-9.448 20.746,-9.448s15.525,3.156 20.893,9.448c4.984,5.932 7.476,13.216 7.476,21.873z"/>
  <path fill="#ffffff" id="path56" d="m509.693,291.086l-10.305,0l0,-42.034c0,-4.612 -1.389,-8.208 -4.162,-10.803c-2.773,-2.582 -6.471,-3.833 -11.082,-3.732c-4.895,0.09 -9.551,1.692 -13.973,4.792l0,51.776l-10.305,0l0,-53.051c5.932,-4.318 11.391,-7.137 16.371,-8.455c4.703,-1.23 8.852,-1.838 12.426,-1.838c2.447,0 4.748,0.236 6.912,0.71c4.049,0.936 7.34,2.671 9.877,5.22c2.83,2.818 4.24,6.201 4.24,10.159l0,47.256l0.001,0z"/>
  <path fill="#ffffff" id="path1948" d="m63.529,196.382c-5.302,0.025 -10.366,0.477 -14.822,1.265c-13.124,2.319 -15.507,7.172 -15.507,16.123l0,11.821l31.017,0l0,3.94l-31.017,0l-11.64,0c-9.014,0 -16.907,5.418 -19.375,15.725c-2.848,11.814 -2.975,19.188 0,31.523c2.205,9.182 7.469,15.725 16.484,15.725l10.664,0l0,-14.172c0,-10.236 8.857,-19.268 19.375,-19.268l30.98,0c8.624,0 15.508,-7.1 15.508,-15.761l0,-29.533c0,-8.404 -7.091,-14.72 -15.508,-16.123c-5.328,-0.887 -10.857,-1.29 -16.159,-1.265zm-16.773,9.507c3.204,0 5.82,2.659 5.82,5.928c0,3.258 -2.617,5.893 -5.82,5.893c-3.216,0 -5.82,-2.635 -5.82,-5.893c0,-3.269 2.604,-5.928 5.82,-5.928z"/>
  <path fill="#ffffff" id="path1950" d="m99.063,229.531l0,13.772c0,10.679 -9.052,19.665 -19.375,19.665l-30.98,0c-8.486,0 -15.508,7.264 -15.508,15.762l0,29.535c0,8.404 7.309,13.35 15.508,15.76c9.818,2.887 19.232,3.41 30.98,0c7.808,-2.26 15.508,-6.811 15.508,-15.76l0,-11.822l-30.98,0l0,-3.939l30.979,0l15.507,0c9.015,0 12.375,-6.287 15.509,-15.725c3.238,-9.717 3.101,-19.061 0,-31.523c-2.228,-8.973 -6.482,-15.725 -15.509,-15.725l-11.639,0zm-17.423,74.793c3.215,0 5.82,2.633 5.82,5.891c0,3.27 -2.605,5.93 -5.82,5.93c-3.204,0 -5.82,-2.66 -5.82,-5.93c0,-3.258 2.617,-5.891 5.82,-5.891z"/>
 </g>
</svg>