<svg width="512" height="512" xmlns="http://www.w3.org/2000/svg">

 <g>
  <title>background</title>
  <rect fill="none" id="canvas_background" height="402" width="582" y="-1" x="-1"/>
 </g>
 <g>
  <title>Layer 1</title>
  <path id="svg_2" fill="#ffffff" d="m103.462,207.061c15.821,0 26.365,2.92 31.637,8.761c5.267,5.841 6.522,15.867 3.766,30.074c-2.879,14.795 -8.423,25.355 -16.641,31.682c-8.218,6.328 -20.724,9.488 -37.513,9.488l-25.33,0l15.549,-80.005l28.532,0zm-101.462,160.996l41.643,0l9.877,-50.823l35.669,0c15.739,0 28.686,-1.65 38.85,-4.96c10.165,-3.305 19.402,-8.848 27.717,-16.63c6.978,-6.415 12.624,-13.49 16.948,-21.227c4.319,-7.731 7.388,-16.267 9.202,-25.601c4.406,-22.66 1.081,-40.31 -9.965,-52.955s-28.619,-18.967 -52.709,-18.967l-80.078,0l-37.154,191.163z"/>
  <path id="svg_3" fill="#ffffff" d="m212.49,126.071l41.314,0l-9.878,50.823l36.806,0c23.157,0 39.132,4.042 47.924,12.117c8.791,8.08 11.425,21.17 7.91,39.266l-17.286,88.957l-41.97,0l16.436,-84.582c1.87,-9.622 1.184,-16.185 -2.064,-19.684c-3.248,-3.5 -10.159,-5.251 -20.729,-5.251l-33.02,0l-21.283,109.516l-41.315,0l37.155,-191.162z"/>
  <path id="svg_4" fill="#ffffff" d="m428.49,207.061c15.821,0 26.365,2.92 31.637,8.761c5.269,5.841 6.523,15.867 3.766,30.074c-2.879,14.795 -8.421,25.355 -16.641,31.682c-8.218,6.328 -20.724,9.488 -37.513,9.488l-25.329,0l15.549,-80.005l28.531,0zm-101.461,160.996l41.643,0l9.876,-50.823l35.669,0c15.739,0 28.686,-1.65 38.851,-4.96c10.164,-3.305 19.401,-8.848 27.717,-16.63c6.979,-6.415 12.624,-13.49 16.948,-21.227c4.318,-7.731 7.388,-16.267 9.201,-25.601c4.406,-22.66 1.082,-40.31 -9.965,-52.955c-11.046,-12.645 -28.619,-18.967 -52.709,-18.967l-80.076,0l-37.155,191.163z"/>
 </g>
</svg>